<svg xmlns="http://www.w3.org/2000/svg" width="24" height="24" viewBox="0 0 24 24">
    <path fill="#FFF" fill-rule="evenodd" d="M18.188 5.813C16.479 4.063 14.416 3.188 12 3.188s-4.49.864-6.219 2.593C4.052 7.511 3.188 9.583 3.188 12c0 2.417.864 4.49 2.593 6.219 1.73 1.729 3.802 2.593 6.219 2.593 2.417 0 4.49-.864 6.219-2.593 1.729-1.73 2.593-3.802 2.593-6.219 0-2.417-.874-4.48-2.625-6.188zM3.5 3.5C5.833 1.167 8.667 0 12 0s6.167 1.167 8.5 3.5S24 8.667 24 12s-1.167 6.167-3.5 8.5S15.333 24 12 24s-6.167-1.167-8.5-3.5S0 15.333 0 12s1.167-6.167 3.5-8.5zm14.625 4.063c.292.291.292.583 0 .875l-5.688 5.687a.6.6 0 0 1-.437.188.6.6 0 0 1-.438-.188L7.688 10.25a.6.6 0 0 1-.188-.438c0-.208.063-.374.188-.5l1.25-1.25c.291-.291.583-.291.874 0L12 10.313l4-4c.292-.291.583-.291.875 0l1.25 1.25z"/>
</svg>
