<svg xmlns="http://www.w3.org/2000/svg" width="20" height="27" viewBox="0 0 20 27">
    <path fill="#FFF" fill-rule="evenodd" d="M2.933 2.933C4.89.978 7.244 0 10 0c2.756 0 5.111.978 7.067 2.933C19.022 4.89 20 7.244 20 10c0 1.244-.344 2.667-1.033 4.267-.69 1.6-1.523 3.1-2.5 4.5a75.495 75.495 0 0 1-2.934 3.933c-.977 1.222-1.81 2.189-2.5 2.9L10 26.667a69.3 69.3 0 0 1-1.083-1.117c-.456-.478-1.256-1.411-2.4-2.8a53.13 53.13 0 0 1-3.034-4.033c-.877-1.3-1.677-2.767-2.4-4.4C.361 12.683 0 11.244 0 10c0-2.756.978-5.111 2.933-7.067zm10.592 3.542C12.542 5.492 11.367 5 10 5s-2.542.492-3.525 1.475C5.492 7.458 5 8.633 5 10s.492 2.542 1.475 3.525C7.458 14.508 8.633 15 10 15s2.542-.492 3.525-1.475C14.508 12.542 15 11.367 15 10s-.492-2.542-1.475-3.525z"/>
</svg>
