<svg xmlns="http://www.w3.org/2000/svg" width="20" height="20" viewBox="0 0 20 20">
    <path fill="#FFF" fill-rule="evenodd" d="M4.01 8.646c1.667 3.229 4.115 5.677 7.344 7.344l2.448-2.448c.347-.348.73-.434 1.146-.26 1.25.416 2.57.624 3.958.624.313 0 .573.104.782.313.208.208.312.469.312.781v3.906c0 .313-.104.573-.313.782a1.06 1.06 0 0 1-.78.312c-5.21 0-9.662-1.849-13.36-5.547C1.849 10.755 0 6.303 0 1.093 0 .782.104.522.313.314A1.06 1.06 0 0 1 1.093 0H5c.313 0 .573.104.781.313.209.208.313.468.313.78 0 1.39.208 2.71.625 3.96.139.45.052.832-.26 1.145L4.01 8.646z"/>
</svg>
