<svg xmlns="http://www.w3.org/2000/svg" width="259" height="50" viewBox="0 0 259 50">
    <g fill="#FFF" fill-rule="nonzero">
        <path d="M.108 37.468l.81-.504c.11-.066.598-.271 1.463-.626.864-.35 1.396-.654 1.59-.898.172-.222.3-.466.372-.732.044-.272.066-.631.066-1.075V16.02c.022-.355.033-.61.033-.765 0-.194-.028-.377-.072-.56a1.778 1.778 0 0 0-.305-.577c-.172-.194-.709-.46-1.618-.792-.914-.338-1.396-.527-1.463-.57l-.876-.422 6.18.194c.471 0 1.402-.034 2.799-.1 1.397-.039 2.367-.06 2.91-.06.787 0 1.519.01 2.19.032.636.017 1.69.117 3.147.288 1.442.189 3.293 1.22 5.554 3.105 2.24 1.884 3.453 3.768 3.636 5.647.172 1.907.26 3.115.26 3.625 0 2.816-.687 5.122-2.062 6.917-1.374 1.796-2.926 3.104-4.66 3.93-1.752.82-3.066 1.286-3.942 1.397-.909.105-1.828.172-2.76.194-.931.021-1.468.033-1.607.033-.643 0-1.33-.012-2.067-.033-.749 0-1.552-.011-2.4-.034H.108zm14.272-.57c3.281 0 6.097-1.209 8.442-3.62 2.327-2.394 3.491-5.205 3.491-8.441v-.765c-.044-.25-.138-1.17-.294-2.76-.182-1.602-1.43-3.42-3.735-5.454-2.306-2.045-5.05-3.07-8.231-3.07H2.901l.599.343c.4.127.864.266 1.397.421.51.183.831.35.975.505.128.182.194.504.194.97v18.756c0 .321.012.642.033.953 0 .51-.033.81-.099.898-.061.116-.316.26-.76.438-.465.171-.953.36-1.463.565l-.537.294 11.14-.033zM8.355 35.34a11.854 11.854 0 0 1-.742-.698c-.239-.272-.36-.472-.36-.605V15.891c0-.293.043-.504.133-.632.066-.132.188-.31.36-.537.188-.217.449-.377.787-.471.304-.067.57-.1.798-.1.532-.128 1.508-.194 2.92-.194.804 0 2.124.077 3.963.227 1.819.183 3.725 1.186 5.72 3.004 1.99 1.84 2.988 4.123 2.988 6.85 0 3.121-.82 5.676-2.455 7.683-1.663 1.99-3.353 3.142-5.066 3.459-1.702.32-2.844.52-3.426.598-.592.067-1.169.094-1.723.094-.66 0-1.391-.067-2.19-.21a5.37 5.37 0 0 1-.975-.095c-.344-.044-.588-.122-.732-.227zm9.112-.832c1.69-.82 3.11-1.928 4.269-3.325 1.124-1.397 1.69-3.503 1.69-6.313 0-2.511-.765-4.711-2.3-6.595-1.53-1.88-3.071-2.988-4.618-3.31-1.568-.337-3.364-.504-5.392-.504-.444 0-.932.011-1.458.034-.554.022-1.009.116-1.364.293-.382.183-.57.593-.57 1.23v17.765c0 .277.083.487.243.631.128.128.416.305.86.522.42.227 1.662.337 3.719.337 1.114 0 2.073-.055 2.876-.16.765-.122 1.447-.321 2.045-.605zM87.868 33.783c0 .51.022.87.067 1.086.033.25.122.477.277.676.15.2.698.482 1.652.848.953.405 1.452.615 1.496.638l.665.437H80.253l.842-.504c.156-.089.649-.31 1.497-.665.842-.327 1.363-.61 1.557-.86a2.4 2.4 0 0 0 .371-.73c.045-.25.067-.605.067-1.07V15.498c0-.35-.022-.61-.067-.799a2.93 2.93 0 0 0-.337-.565c-.156-.172-.682-.438-1.591-.792-.91-.338-1.397-.527-1.464-.572l-.875-.437h11.983l-.765.471c-.205.116-.754.333-1.64.632-.91.338-1.436.598-1.591.798a1.57 1.57 0 0 0-.317.67c-.038.223-.055.599-.055 1.132v17.747zm-.471-18.917c0-.155.033-.305.1-.455.044-.16.122-.31.238-.438.084-.133.316-.299.699-.504.36-.172.56-.283.603-.327l.438-.338H83.08l.598.338c.022 0 .388.111 1.103.327.682.25 1.092.454 1.225.61.139.155.205.476.205.964v18.74c0 .327.011.642.034.959 0 .51-.034.803-.1.892-.061.116-.317.266-.76.438-.466.171-.953.36-1.463.565l-.538.294h6.319l-.477-.327c-.26-.139-.504-.271-.731-.405a1.75 1.75 0 0 1-.577-.454c-.15-.183-.272-.466-.355-.843-.11-.377-.166-.665-.166-.859V14.866zM125.434 38.005h-2.217l-6.224-6.878a204.418 204.418 0 0 0-4.595-5.093 823.708 823.708 0 0 0-4.794-4.95 333.947 333.947 0 0 1-3.149-3.215v15.813c0 .543.034.909.1 1.109.039.194.167.416.372.665.193.266.725.577 1.59.925.865.377 1.341.588 1.43.632l.798.488H96.973l.699-.438c.171-.11.703-.332 1.59-.665.865-.327 1.413-.632 1.64-.926.217-.27.378-.56.488-.859.117-.293.177-.693.177-1.202V12.02h2.19c.665.76 1.214 1.375 1.657 1.841.422.466 1.12 1.186 2.096 2.161a789.8 789.8 0 0 1 5.958 6.225c2.97 3.17 4.916 5.27 5.848 6.285.93 1.02 1.944 2.118 3.036 3.298V16.068c0-.488-.01-.793-.033-.926-.044-.116-.188-.326-.438-.632-.238-.315-.803-.665-1.69-1.041-.887-.383-1.413-.616-1.574-.7l-.698-.403h11.772l-.798.46c-.106.077-.594.288-1.458.637-.892.36-1.413.654-1.563.886-.183.217-.3.4-.338.55-.067.165-.1.387-.1.664v22.442zm-21.483-21.272l-.781-2.029.094-.355 20.652 21.822-.538 1.33h1.424V15.175c0-.355.084-.598.244-.731.127-.139.283-.277.455-.405.066-.105.288-.26.665-.46.377-.205.576-.316.598-.332l.438-.344h-6.313l.521.31c.627.261 1.131.471 1.513.632.366.15.6.272.699.355.067.1.116.3.16.604.045.333.067.704.067 1.103v19.078l-.31.06-.765-2.155-19.172-20.458h-1.707l.875 1.607v21.007c0 .315-.043.526-.133.637-.088.139-.365.294-.836.471-.488.194-.926.36-1.303.499l-.537.327h6.28l-.422-.327a10.544 10.544 0 0 1-.732-.405 2.349 2.349 0 0 1-.598-.415 3.5 3.5 0 0 1-.377-.41c-.105-.111-.16-.344-.16-.699v-17.99zM154.674 12.748l-.067 7.41-1.23-2.66a16.206 16.206 0 0 0-.732-1.49 2.908 2.908 0 0 0-.826-.894c-.382-.249-1.025-.47-1.934-.665a16.218 16.218 0 0 0-3.115-.277c-2.981 0-5.431.976-7.36 2.921-1.946 1.979-2.921 4.617-2.921 7.915 0 2.982 1.064 5.532 3.198 7.638 2.1 2.134 4.672 3.198 7.715 3.198 1.147 0 2.323-.222 3.52-.665 1.191-.422 2.012-.876 2.455-1.364.421-.487.765-.92 1.03-1.297.267-.376.61-.903 1.032-1.573l1.263-2.09-1.169 7.46-1.12.538c-.991.465-2.133.809-3.424 1.025-1.309.227-2.938.338-4.89.338-3.214 0-6.207-1.219-8.979-3.652-2.793-2.428-4.19-5.421-4.19-8.98 0-3.89 1.386-7.16 4.157-9.81 2.75-2.644 6.053-3.963 9.91-3.963 1.352 0 2.45.022 3.293.067.826.044 1.956.25 3.397.615l.987.255zm-20.247 12.538c0 3.37 1.363 6.284 4.09 8.74 2.71 2.455 5.66 3.686 8.852 3.686 1.463 0 2.677-.09 3.653-.26.953-.15 1.978-.489 3.086-1.015l.97-.46.538-4.19-1.264 2.92c-.737.444-1.784.838-3.136 1.17a17.083 17.083 0 0 1-4.091.504c-3.076 0-5.687-1.164-7.843-3.491-2.156-2.328-3.231-5.077-3.231-8.248 0-3.325 1.086-6.002 3.265-8.03 2.172-2.03 4.827-3.044 7.953-3.044h2.356a8.474 8.474 0 0 1 2.095.31l1.302.328 1.053 3.198.033-4.285c-1.124-.449-2.111-.715-2.953-.803-.87-.083-2.151-.128-3.853-.128-3.84.332-6.95 1.569-9.316 3.708-2.373 2.134-3.559 5.265-3.559 9.39zM169.622 33.792c0 .51.022.87.067 1.086.033.25.121.477.277.677.15.2.698.482 1.651.848.953.404 1.452.615 1.497.637l.665.438h-11.772l.842-.505c.155-.088.649-.31 1.497-.665.842-.327 1.363-.61 1.557-.859.172-.238.3-.482.371-.732.045-.249.067-.603.067-1.07v-18.14c0-.35-.022-.61-.067-.798a2.89 2.89 0 0 0-.338-.566c-.155-.171-.681-.437-1.59-.792-.91-.338-1.397-.526-1.463-.57l-.876-.439h11.983l-.765.471c-.205.117-.754.333-1.64.632-.91.338-1.436.599-1.592.798a1.566 1.566 0 0 0-.315.67c-.04.223-.056.6-.056 1.132v17.747zm-.47-18.917c0-.155.032-.305.099-.455.044-.16.122-.31.238-.437.083-.133.316-.3.698-.505.36-.171.56-.282.605-.326l.438-.339h-6.397l.599.339c.022 0 .388.11 1.103.326.681.25 1.092.455 1.225.61.138.155.205.477.205.964V33.792c0 .327.01.643.033.96 0 .509-.033.803-.1.891-.06.117-.315.267-.759.438-.466.172-.953.36-1.463.565l-.538.294h6.319l-.477-.327c-.26-.138-.504-.271-.732-.405a1.732 1.732 0 0 1-.576-.454c-.15-.183-.271-.465-.355-.843-.11-.376-.166-.665-.166-.858V14.875z"/>
        <path d="M64.122 31.455l-1.296 3.884h-3.06c-.358-1.046-.793-2.328-1.32-3.846-.519-1.533-1.648-4.57-3.395-9.109-1.77-4.517-3.31-8.385-4.623-11.62-1.335-3.196-2.205-5.149-2.586-5.851a10.843 10.843 0 0 0-1.053-1.923c-.435-.519-1.284-1.04-2.572-1.518C42.943.998 1.431.755 1.31.694L.104.091h57.297l-1.099.58c-.343.198-.976.457-1.915.786-.953.373-1.51.663-1.655.87a1.234 1.234 0 0 0-.268.778c0 .305.062.61.176.923.092.328.221.686.405 1.09l8.598 21.523 7.729-21.507c.091-.267.19-.588.29-.953.06-.374.091-.68.091-.917 0-.434-.084-.754-.26-.96-.167-.214-.862-.52-2.082-.916-1.228-.404-1.908-.633-2.06-.694L64.214.091H256.12l-1.563.649c-.62.257-177.997.51-178.594.778-.625.281-1.114.717-1.51 1.198-.39.488-.634.8-.725.953-.115.191-.26.512-.42.954-.274.466-1.106 2.716-2.502 6.76a813.183 813.183 0 0 0-4.19 12.397c-1.395 4.22-2.227 6.775-2.494 7.675zM51.68 2.906c0-.221.061-.396.184-.51.083-.123.304-.298.648-.542.297-.221.55-.39.755-.512L54.273.74H44.82l.81.465c.922.305 1.67.55 2.257.755.58.198.969.435 1.183.702.175.283.374.641.603 1.068L61.2 32.684l-.878 2.006h1.831L72.384 5.27c.108-.297.367-.838.786-1.61.435-.731.74-1.197.916-1.41.153-.206.412-.42.778-.641.374-.184.725-.359 1.053-.543l.786-.465h-8.781l.74.511c.053.031.557.183 1.495.45.923.314 1.412.542 1.473.688.061.182.091.327.091.449 0 .283-.107.672-.305 1.175a135.23 135.23 0 0 1-.702 1.71l-9.163 26.221-.084-3.837L51.863 3.66c-.123-.35-.184-.61-.184-.755z"/>
        <path d="M47.428 18.379l-1.296-3.883h-3.06c-.358 1.044-.793 2.326-1.32 3.844-.518 1.534-1.647 4.57-3.395 9.11-1.77 4.516-3.31 8.385-4.623 11.62-1.335 3.196-2.204 5.15-2.586 5.852a10.858 10.858 0 0 1-1.053 1.921c-.435.52-1.283 1.04-2.57 1.519-1.276.475-26.027.718-26.148.778l-1.206.603h40.536l-1.099-.58c-.343-.199-.976-.458-1.915-.786-.953-.373-1.51-.664-1.654-.87a1.23 1.23 0 0 1-.268-.777c0-.306.062-.611.176-.924.092-.328.22-.687.404-1.09l8.598-21.523L52.678 44.7c.091.267.19.587.29.954.06.374.091.679.091.915 0 .435-.084.756-.26.962-.167.213-.861.518-2.082.915a73.683 73.683 0 0 0-2.06.694l-1.137.603h211.557l-1.564-.648c-.62-.258-197.647-.51-198.244-.779-.625-.281-1.114-.717-1.51-1.197-.39-.489-.634-.802-.725-.955-.115-.19-.26-.51-.42-.953-.274-.465-1.106-2.716-2.502-6.76a808.795 808.795 0 0 1-4.189-12.397c-1.396-4.22-2.227-6.775-2.495-7.675zM34.986 46.928c0 .22.06.397.183.511.083.122.304.297.648.541.297.222.55.39.755.512l1.008.603h-9.453l.809-.466c.922-.305 1.67-.55 2.257-.755.58-.199.969-.435 1.184-.702.174-.282.373-.641.602-1.068L44.507 17.15l-.878-2.006h1.831l10.231 29.419c.107.297.367.839.786 1.61.435.732.74 1.197.915 1.41.153.207.412.42.78.642.373.183.724.358 1.051.541l.787.466h-8.782l.74-.512c.054-.03.557-.183 1.496-.45.923-.312 1.41-.541 1.472-.686.061-.183.091-.329.091-.45 0-.283-.107-.672-.305-1.176-.198-.495-.435-1.068-.702-1.708l-9.162-26.222-.085 3.838-9.604 24.306c-.123.35-.183.61-.183.756zM186.134 37.067l.989.068c.096-.253.208-.422.326-.512a1.21 1.21 0 0 1 .579-.162c.511.101 1.264.314 2.248.64 1.382.405 2.67.607 3.855.607 2.742 0 4.957-.674 6.637-2.023 1.692-1.383 2.535-3.147 2.535-5.3 0-1.568-.484-2.928-1.45-4.08-1.017-1.14-2.703-2.203-5.052-3.192a.13.13 0 0 0-.062-.028.294.294 0 0 1-.073-.01.113.113 0 0 1-.05-.03c-2.052-.898-3.581-1.803-4.587-2.708-1.006-.904-1.506-1.832-1.506-2.788 0-1.185.41-2.14 1.237-2.866.876-.725 1.967-1.084 3.276-1.084 1.528 0 2.76.471 3.703 1.416.922.922 1.445 2.225 1.568 3.917h1.136v-.512c.022-.151.034-.32.034-.511a14.282 14.282 0 0 1-.017-.674l-.051-.837c-.079-.596-.14-1.13-.197-1.614.045-.135.079-.235.107-.309.028-.067.056-.145.09-.236.034-.09.068-.18.101-.275.028-.09.062-.18.095-.27.135-.331.237-.702.315-1.107l-1.084-.067a.952.952 0 0 1-.298.37c-.146.09-.326.135-.545.135-.231-.033-.905-.135-2.024-.303-1.106-.225-2.107-.337-2.995-.337-2.523 0-4.552.64-6.075 1.928-.782.668-1.354 1.416-1.726 2.242-.376.832-.562 1.776-.562 2.838 0 1.602.484 2.95 1.45 4.052 1.029 1.096 2.861 2.197 5.491 3.304 1.102.45 2.029.894 2.788 1.332.753.439 1.31.855 1.663 1.236.725.793 1.085 1.743 1.085 2.867 0 1.281-.45 2.327-1.349 3.124-.888.793-2.08 1.187-3.575 1.187-1.921 0-3.45-.62-4.59-1.86-1.153-1.271-1.776-2.968-1.878-5.087h-1.186v.444a3.155 3.155 0 0 0-.027.394c0 .606.027 1.225.095 1.86.067.68.168 1.4.315 2.158a11.6 11.6 0 0 0-.444 1.28 12.43 12.43 0 0 0-.315 1.383zm32.534-10.919c.23.062.584.118 1.068.163.55.045 1.05.067 1.5.067 2.512-.033 4.592-.719 6.227-2.056.843-.686 1.473-1.456 1.883-2.316.41-.866.618-1.82.618-2.877 0-2.13-.775-3.737-2.321-4.828-1.574-1.073-3.877-1.613-6.918-1.613a70.16 70.16 0 0 0-3.372.163c-1 .09-2.04.259-3.125.512a48.135 48.135 0 0 0-2.601-.405c-.81-.1-1.602-.168-2.372-.203v.805c1.32.095 2.197.545 2.635 1.348.473.77.709 2.59.709 5.469v9.565c0 2.82-.236 4.602-.709 5.339-.46.747-1.337 1.152-2.635 1.219v.837a33.8 33.8 0 0 0 2.304-.197 270.9 270.9 0 0 0 3.378-.477c.292.045.567.084.82.124l.815.123c.292.045.556.08.798.107.241.028.494.056.758.09.928.118 1.906.197 2.929.23V36.5c-1.496-.067-2.518-.472-3.064-1.22-.263-.399-.46-1.079-.584-2.045-.129-.967-.19-2.18-.19-3.653V19.32c.021-.647.033-1.58.033-2.799.023-.618.039-1.09.05-1.416 0-.332.006-.697.017-1.101.394-.046.674-.068.838-.068.185-.023.466-.034.842-.034 1.996.034 3.485.54 4.457 1.517.99.984 1.484 2.468 1.484 4.446 0 1.636-.427 2.94-1.282 3.917-.848.945-2.006 1.416-3.478 1.416-.315 0-.54-.011-.675-.034a14.044 14.044 0 0 0-.606-.095l-.23 1.08zm22.686-13.797L236.28 24.53c-.062.134-.247.595-.556 1.382-.31.792-.49 1.253-.545 1.383-2.535 6.136-4.727 9.205-6.57 9.205h-.146v.837a23.096 23.096 0 0 0 1.961-.197c.349-.044.754-.117 1.214-.213.461-.101.832-.18 1.107-.23.888.208 1.647.354 2.27.443.714.096 1.36.164 1.945.197v-.842c-.804-.029-1.366-.17-1.68-.41-.32-.254-.478-.62-.478-1.102 0-.388.146-1.063.444-2.03.22-.747.613-1.87 1.186-3.376l.64-1.614h1.945c.45-.022 1.225-.033 2.338-.033.472.022 1.13.033 1.973.033h1.995l.674 1.877c.337.9.703 2.006 1.085 3.31.241.945.365 1.557.365 1.833-.034.494-.219.848-.562 1.068-.438.263-1.04.415-1.793.444v.842a36.031 36.031 0 0 0 2.355-.197c.393-.056 1.377-.201 2.945-.444.067.012.129.017.196.023.068.006.158.023.265.04 1.944.297 3.574.489 4.889.578V36.5h-.034c-1.646 0-3.58-2.95-5.794-8.84-.759-1.956-1.152-2.973-1.186-3.063l-4.754-12.246h-2.619zm0 4.816c.292.77.495 1.287.59 1.546.101.264.264.703.49 1.31.224.607.42 1.146.595 1.607a142.799 142.799 0 0 1 1.798 4.917c-.275.023-.658.034-1.152.034h-3.737a56.652 56.652 0 0 0-2.304-.034c1.006-2.641 1.618-4.215 1.826-4.72a238.673 238.673 0 0 0 1.225-3.064c.118-.297.337-.826.67-1.596z"/>
    </g>
</svg>
