<svg xmlns="http://www.w3.org/2000/svg" width="17" height="16" viewBox="0 0 17 16">
    <g fill="#FFF" fill-rule="nonzero">
        <path d="M11.687 2.714c-.003-.62-.043-.675-.613-1.01L8.53.22C8.047-.053 7.945-.06 7.5.19l-2.53 1.47c-.59.344-.676.4-.688.905v3.18c.006.513.038.637.371.851 0 0 2.457 1.43 2.857 1.665.432.241.538.234 1.003-.028l2.666-1.555c.45-.267.497-.36.504-.909l.004-3.054zM16.015 10.268c-.003-.62-.043-.676-.612-1.01l-2.546-1.486c-.479-.27-.581-.28-1.02-.035L9.3 9.212c-.591.345-.677.4-.689.906v3.18c.005.512.038.636.371.85 0 0 2.456 1.43 2.857 1.665.433.241.538.234 1.003-.027l2.666-1.555c.45-.267.497-.36.504-.907l.004-3.056zM7.42 10.268c-.003-.62-.043-.676-.612-1.01L4.262 7.772c-.479-.27-.581-.28-1.02-.035L.704 9.212c-.592.345-.677.4-.69.906l.002 3.18c.004.512.037.636.37.85 0 0 2.456 1.43 2.857 1.665.433.241.538.234 1.003-.027l2.666-1.555c.45-.267.498-.36.504-.907l.004-3.056z"/>
    </g>
</svg>
